<svg xmlns="http://www.w3.org/2000/svg" width="1587" height="4690" fill="none" viewBox="0 0 1587 4690"><line x1="1507.94" x2="1560.97" y1="1521.46" y2="1468.42" stroke="#EEE" stroke-width="3"/><line x1="1531.96" x2="1584.99" y1="1510.97" y2="1457.94" stroke="#EEE" stroke-width="3"/><line x1="427.939" x2="480.972" y1="2081.46" y2="2028.42" stroke="#EEE" stroke-width="3"/><line x1="451.956" x2="504.989" y1="2070.97" y2="2017.94" stroke="#EEE" stroke-width="3"/><line x1="233.939" x2="286.972" y1="1557.46" y2="1504.42" stroke="#EEE" stroke-width="3"/><line x1="257.956" x2="310.989" y1="1546.97" y2="1493.94" stroke="#EEE" stroke-width="3"/><line x1="645.939" x2="698.972" y1="1754.46" y2="1701.42" stroke="#EEE" stroke-width="3"/><line x1="669.956" x2="722.989" y1="1743.97" y2="1690.94" stroke="#EEE" stroke-width="3"/><line x1="465.939" x2="518.972" y1="2376.46" y2="2323.42" stroke="#EEE" stroke-width="3"/><line x1="489.956" x2="542.989" y1="2365.97" y2="2312.94" stroke="#EEE" stroke-width="3"/><line x1="832.939" x2="885.972" y1="824.456" y2="771.423" stroke="#EEE" stroke-width="3"/><line x1="856.956" x2="909.989" y1="813.973" y2="760.94" stroke="#EEE" stroke-width="3"/><line x1="1035.94" x2="1088.97" y1="221.456" y2="168.423" stroke="#EEE" stroke-width="3"/><line x1="1059.96" x2="1112.99" y1="210.972" y2="157.939" stroke="#EEE" stroke-width="3"/><line x1="483.939" x2="536.972" y1="648.456" y2="595.423" stroke="#EEE" stroke-width="3"/><line x1="507.956" x2="560.989" y1="637.972" y2="584.939" stroke="#EEE" stroke-width="3"/><line x1="1147.94" x2="1200.97" y1="1741.46" y2="1688.42" stroke="#EEE" stroke-width="3"/><line x1="1171.96" x2="1224.99" y1="1730.97" y2="1677.94" stroke="#EEE" stroke-width="3"/><line x1="1423.94" x2="1476.97" y1="2063.46" y2="2010.42" stroke="#EEE" stroke-width="3"/><line x1="1447.96" x2="1500.99" y1="2052.97" y2="1999.94" stroke="#EEE" stroke-width="3"/><line x1="858.939" x2="911.972" y1="2864.46" y2="2811.42" stroke="#EEE" stroke-width="3"/><line x1="882.956" x2="935.989" y1="2853.97" y2="2800.94" stroke="#EEE" stroke-width="3"/><line x1="1129.94" x2="1182.97" y1="2403.46" y2="2350.42" stroke="#EEE" stroke-width="3"/><line x1="1153.96" x2="1206.99" y1="2392.97" y2="2339.94" stroke="#EEE" stroke-width="3"/><line x1="1373.94" x2="1426.97" y1="2491.46" y2="2438.42" stroke="#EEE" stroke-width="3"/><line x1="1397.96" x2="1450.99" y1="2480.97" y2="2427.94" stroke="#EEE" stroke-width="3"/><line x1="1180.94" x2="1233.97" y1="2800.46" y2="2747.42" stroke="#EEE" stroke-width="3"/><line x1="1204.96" x2="1257.99" y1="2789.97" y2="2736.94" stroke="#EEE" stroke-width="3"/><line x1="222.939" x2="275.972" y1="2558.46" y2="2505.42" stroke="#EEE" stroke-width="3"/><line x1="246.956" x2="299.989" y1="2547.97" y2="2494.94" stroke="#EEE" stroke-width="3"/><line x1="1373.94" x2="1426.97" y1="3107.46" y2="3054.42" stroke="#EEE" stroke-width="3"/><line x1="1397.96" x2="1450.99" y1="3096.97" y2="3043.94" stroke="#EEE" stroke-width="3"/><line x1="10.939" x2="63.972" y1="4616.46" y2="4563.42" stroke="#EEE" stroke-width="3"/><line x1="34.956" x2="87.989" y1="4605.97" y2="4552.94" stroke="#EEE" stroke-width="3"/><line x1="397.939" x2="450.972" y1="4363.46" y2="4310.42" stroke="#EEE" stroke-width="3"/><line x1="421.956" x2="474.989" y1="4352.97" y2="4299.94" stroke="#EEE" stroke-width="3"/><line x1="421.939" x2="474.972" y1="4199.46" y2="4146.42" stroke="#EEE" stroke-width="3"/><line x1="445.956" x2="498.989" y1="4188.97" y2="4135.94" stroke="#EEE" stroke-width="3"/><line x1="1275.94" x2="1328.97" y1="3949.46" y2="3896.42" stroke="#EEE" stroke-width="3"/><line x1="1299.96" x2="1352.99" y1="3938.97" y2="3885.94" stroke="#EEE" stroke-width="3"/><line x1="1280.94" x2="1333.97" y1="4358.46" y2="4305.42" stroke="#EEE" stroke-width="3"/><line x1="1304.96" x2="1357.99" y1="4347.97" y2="4294.94" stroke="#EEE" stroke-width="3"/><line x1="1035.94" x2="1088.97" y1="4263.46" y2="4210.42" stroke="#EEE" stroke-width="3"/><line x1="1059.96" x2="1112.99" y1="4252.97" y2="4199.94" stroke="#EEE" stroke-width="3"/><line x1="119.939" x2="172.972" y1="3876.46" y2="3823.42" stroke="#EEE" stroke-width="3"/><line x1="143.956" x2="196.989" y1="3865.97" y2="3812.94" stroke="#EEE" stroke-width="3"/><line x1="10.939" x2="63.972" y1="4118.46" y2="4065.42" stroke="#EEE" stroke-width="3"/><line x1="34.956" x2="87.989" y1="4107.97" y2="4054.94" stroke="#EEE" stroke-width="3"/><line x1="964.939" x2="1017.97" y1="3589.46" y2="3536.42" stroke="#EEE" stroke-width="3"/><line x1="988.956" x2="1041.99" y1="3578.97" y2="3525.94" stroke="#EEE" stroke-width="3"/><line x1="594.939" x2="647.972" y1="3671.46" y2="3618.42" stroke="#EEE" stroke-width="3"/><line x1="618.956" x2="671.989" y1="3660.97" y2="3607.94" stroke="#EEE" stroke-width="3"/><line x1="709.939" x2="762.972" y1="3471.46" y2="3418.42" stroke="#EEE" stroke-width="3"/><line x1="733.956" x2="786.989" y1="3460.97" y2="3407.94" stroke="#EEE" stroke-width="3"/><line x1="222.939" x2="275.972" y1="3316.46" y2="3263.42" stroke="#EEE" stroke-width="3"/><line x1="246.956" x2="299.989" y1="3305.97" y2="3252.94" stroke="#EEE" stroke-width="3"/><line x1="1280.94" x2="1333.97" y1="4616.46" y2="4563.42" stroke="#EEE" stroke-width="3"/><line x1="1304.96" x2="1357.99" y1="4605.97" y2="4552.94" stroke="#EEE" stroke-width="3"/><line x1="49.939" x2="102.972" y1="3139.46" y2="3086.42" stroke="#EEE" stroke-width="3"/><line x1="73.956" x2="126.989" y1="3128.97" y2="3075.94" stroke="#EEE" stroke-width="3"/><line x1="1006.94" x2="1059.97" y1="2022.46" y2="1969.42" stroke="#EEE" stroke-width="3"/><line x1="1030.96" x2="1083.99" y1="2011.97" y2="1958.94" stroke="#EEE" stroke-width="3"/><line x1="64.939" x2="117.972" y1="2162.46" y2="2109.42" stroke="#EEE" stroke-width="3"/><line x1="88.956" x2="141.989" y1="2151.97" y2="2098.94" stroke="#EEE" stroke-width="3"/><line x1="351.939" x2="404.972" y1="2747.46" y2="2694.42" stroke="#EEE" stroke-width="3"/><line x1="375.956" x2="428.989" y1="2736.97" y2="2683.94" stroke="#EEE" stroke-width="3"/><line x1="1488.94" x2="1541.97" y1="1653.46" y2="1600.42" stroke="#EEE" stroke-width="3"/><line x1="1512.96" x2="1565.99" y1="1642.97" y2="1589.94" stroke="#EEE" stroke-width="3"/><line x1="52.939" x2="105.972" y1="1855.46" y2="1802.42" stroke="#EEE" stroke-width="3"/><line x1="76.956" x2="129.989" y1="1844.97" y2="1791.94" stroke="#EEE" stroke-width="3"/><line x1="13.939" x2="66.972" y1="1054.46" y2="1001.42" stroke="#EEE" stroke-width="3"/><line x1="37.956" x2="90.989" y1="1043.97" y2="990.94" stroke="#EEE" stroke-width="3"/><line x1="1418.94" x2="1471.97" y1="560.456" y2="507.423" stroke="#EEE" stroke-width="3"/><line x1="1442.96" x2="1495.99" y1="549.972" y2="496.939" stroke="#EEE" stroke-width="3"/><line x1="1445.94" x2="1498.97" y1="888.456" y2="835.423" stroke="#EEE" stroke-width="3"/><line x1="1469.96" x2="1522.99" y1="877.973" y2="824.94" stroke="#EEE" stroke-width="3"/><line x1="372.939" x2="425.972" y1="1223.46" y2="1170.42" stroke="#EEE" stroke-width="3"/><line x1="396.956" x2="449.989" y1="1212.97" y2="1159.94" stroke="#EEE" stroke-width="3"/><line x1="1314.94" x2="1367.97" y1="1396.46" y2="1343.42" stroke="#EEE" stroke-width="3"/><line x1="1338.96" x2="1391.99" y1="1385.97" y2="1332.94" stroke="#EEE" stroke-width="3"/><line x1="605.939" x2="658.972" y1="1417.46" y2="1364.42" stroke="#EEE" stroke-width="3"/><line x1="629.956" x2="682.989" y1="1406.97" y2="1353.94" stroke="#EEE" stroke-width="3"/><line x1="287.939" x2="340.972" y1="364.456" y2="311.423" stroke="#EEE" stroke-width="3"/><line x1="311.956" x2="364.989" y1="353.972" y2="300.939" stroke="#EEE" stroke-width="3"/><line x1="944.939" x2="997.972" y1="659.456" y2="606.423" stroke="#EEE" stroke-width="3"/><line x1="968.956" x2="1021.99" y1="648.972" y2="595.939" stroke="#EEE" stroke-width="3"/><line x1="-1.061" x2="51.972" y1="435.456" y2="382.423" stroke="#EEE" stroke-width="3"/><line x1="22.956" x2="75.989" y1="424.972" y2="371.939" stroke="#EEE" stroke-width="3"/><path fill="#EEE" d="M269.518 670.506L264.759 688.265L251.759 675.264L269.518 670.506Z"/><path fill="#EEE" d="M704.518 890.506L699.759 908.265L686.759 895.264L704.518 890.506Z"/><path fill="#EEE" d="M320.518 145.506L315.759 163.265L302.759 150.264L320.518 145.506Z"/><path fill="#EEE" d="M691.509 696.503L685.484 718.987L669.025 702.528L691.509 696.503Z"/><path fill="#EEE" d="M118.509 1247.5L112.484 1269.99L96.0246 1253.53L118.509 1247.5Z"/><path fill="#EEE" d="M364.509 1708.5L358.484 1730.99L342.025 1714.53L364.509 1708.5Z"/><path fill="#EEE" d="M1204.51 1959.5L1198.48 1981.99L1182.02 1965.53L1204.51 1959.5Z"/><path fill="#EEE" d="M1477.51 2221.5L1471.48 2243.99L1455.02 2227.53L1477.51 2221.5Z"/><path fill="#EEE" d="M955.509 2314.5L949.484 2336.99L933.025 2320.53L955.509 2314.5Z"/><path fill="#EEE" d="M297.509 1957.5L291.484 1979.99L275.025 1963.53L297.509 1957.5Z"/><path fill="#EEE" d="M297.509 2349.5L291.484 2371.99L275.025 2355.53L297.509 2349.5Z"/><path fill="#EEE" d="M1461.51 2607.5L1455.48 2629.99L1439.02 2613.53L1461.51 2607.5Z"/><path fill="#EEE" d="M1223.51 2588.5L1217.48 2610.99L1201.02 2594.53L1223.51 2588.5Z"/><path fill="#EEE" d="M1476.51 3240.5L1470.48 3262.99L1454.02 3246.53L1476.51 3240.5Z"/><path fill="#EEE" d="M1450.51 2838.5L1444.48 2860.99L1428.02 2844.53L1450.51 2838.5Z"/><path fill="#EEE" d="M701.509 3016.5L695.484 3038.99L679.025 3022.53L701.509 3016.5Z"/><path fill="#EEE" d="M60.5088 3412.5L54.4842 3434.99L38.0246 3418.53L60.5088 3412.5Z"/><path fill="#EEE" d="M41.5088 3685.5L35.4842 3707.99L19.0246 3691.53L41.5088 3685.5Z"/><path fill="#EEE" d="M423.509 3562.5L417.484 3584.99L401.025 3568.53L423.509 3562.5Z"/><path fill="#EEE" d="M317.509 4580.5L311.484 4602.99L295.025 4586.53L317.509 4580.5Z"/><path fill="#EEE" d="M151.509 3202.5L145.484 3224.99L129.025 3208.53L151.509 3202.5Z"/><path fill="#EEE" d="M669.509 4325.5L663.484 4347.99L647.025 4331.53L669.509 4325.5Z"/><path fill="#EEE" d="M1334.51 3370.5L1328.48 3392.99L1312.02 3376.53L1334.51 3370.5Z"/><path fill="#EEE" d="M1528.51 3785.5L1522.48 3807.99L1506.02 3791.53L1528.51 3785.5Z"/><path fill="#EEE" d="M1380.51 4155.5L1374.48 4177.99L1358.02 4161.53L1380.51 4155.5Z"/><path fill="#EEE" d="M1490.51 4021.5L1484.48 4043.99L1468.02 4027.53L1490.51 4021.5Z"/><path fill="#EEE" d="M164.509 4247.5L158.484 4269.99L142.025 4253.53L164.509 4247.5Z"/><path fill="#EEE" d="M1054.51 4063.5L1048.48 4085.99L1032.02 4069.53L1054.51 4063.5Z"/><path fill="#EEE" d="M752.509 3906.5L746.484 3928.99L730.025 3912.53L752.509 3906.5Z"/><path fill="#EEE" d="M361.509 3912.5L355.484 3934.99L339.025 3918.53L361.509 3912.5Z"/><path fill="#EEE" d="M60.5088 2421.5L54.4842 2443.99L38.0246 2427.53L60.5088 2421.5Z"/><path fill="#EEE" d="M137.509 2707.5L131.484 2729.99L115.025 2713.53L137.509 2707.5Z"/><path fill="#EEE" d="M1398.51 1746.5L1392.48 1768.99L1376.02 1752.53L1398.51 1746.5Z"/><path fill="#EEE" d="M842.509 2115.5L836.484 2137.99L820.025 2121.53L842.509 2115.5Z"/><path fill="#EEE" d="M1402.51 650.503L1396.48 672.987L1380.02 656.528L1402.51 650.503Z"/><path fill="#EEE" d="M1307.51 332.503L1301.48 354.987L1285.02 338.528L1307.51 332.503Z"/><path fill="#EEE" d="M1194.51 679.503L1188.48 701.987L1172.02 685.528L1194.51 679.503Z"/><path fill="#EEE" d="M828.509 1448.5L822.484 1470.99L806.025 1454.53L828.509 1448.5Z"/><path fill="#EEE" d="M557.509 1532.5L551.484 1554.99L535.025 1538.53L557.509 1532.5Z"/><path fill="#EEE" d="M1499.51 1151.5L1493.48 1173.99L1477.02 1157.53L1499.51 1151.5Z"/><path fill="#EEE" d="M59.0186 234.673L51.6183 262.291L31.4003 242.073L59.0186 234.673Z"/><line x1="60.939" x2="113.972" y1="62.456" y2="9.423" stroke="#EEE" stroke-width="3"/><line x1="84.956" x2="137.989" y1="51.972" y2="-1.061" stroke="#EEE" stroke-width="3"/></svg>