<svg xmlns="http://www.w3.org/2000/svg" width="862" height="900" fill="none" viewBox="0 0 862 900"><line x1="262.939" x2="315.972" y1="65.456" y2="12.423" stroke="#fff" stroke-opacity=".24" stroke-width="3"/><line x1="286.956" x2="339.989" y1="54.972" y2="1.939" stroke="#fff" stroke-opacity=".24" stroke-width="3"/><line x1="755.939" x2="808.972" y1="510.456" y2="457.423" stroke="#fff" stroke-opacity=".24" stroke-width="3"/><line x1="779.956" x2="832.989" y1="499.972" y2="446.939" stroke="#fff" stroke-opacity=".24" stroke-width="3"/><line x1="430.939" x2="483.972" y1="891.456" y2="838.423" stroke="#fff" stroke-opacity=".24" stroke-width="3"/><line x1="454.956" x2="507.989" y1="880.973" y2="827.94" stroke="#fff" stroke-opacity=".24" stroke-width="3"/><line x1="782.939" x2="835.972" y1="838.456" y2="785.423" stroke="#fff" stroke-opacity=".24" stroke-width="3"/><line x1="806.956" x2="859.989" y1="827.973" y2="774.94" stroke="#fff" stroke-opacity=".24" stroke-width="3"/><line x1="63.939" x2="116.972" y1="460.456" y2="407.423" stroke="#fff" stroke-opacity=".24" stroke-width="3"/><line x1="87.956" x2="140.989" y1="449.972" y2="396.939" stroke="#fff" stroke-opacity=".24" stroke-width="3"/><path fill="#fff" fill-opacity=".24" d="M75.5176 876.506L70.7591 894.265L57.7585 881.264L75.5176 876.506Z"/><path fill="#fff" fill-opacity=".24" d="M28.5088 646.503L22.4842 668.987L6.02462 652.528L28.5088 646.503Z"/><path fill="#fff" fill-opacity=".24" d="M812.509 634.503L806.484 656.987L790.025 640.528L812.509 634.503Z"/><path fill="#fff" fill-opacity=".24" d="M761.509 243.503L755.484 265.987L739.025 249.528L761.509 243.503Z"/><path fill="#fff" fill-opacity=".24" d="M58.5088 221.503L52.4842 243.987L36.0246 227.528L58.5088 221.503Z"/><path fill="#fff" fill-opacity=".24" d="M774.509 49.5029L768.484 71.9871L752.025 55.5275L774.509 49.5029Z"/></svg>